<svg xmlns="http://www.w3.org/2000/svg" xmlns:xlink="http://www.w3.org/1999/xlink" viewBox="0 0 186.75 75.01"><defs><style>.cls-1{fill:url(#New_Gradient_Swatch_1);}.cls-2{clip-path:url(#clip-path);}.cls-3{fill:url(#New_Gradient_Swatch_1-3);}.cls-4{fill:#404040;}</style><linearGradient id="New_Gradient_Swatch_1" x1="1.1" y1="37.5" x2="75.88" y2="37.5" gradientUnits="userSpaceOnUse"><stop offset="0" stop-color="#f09744"/><stop offset="1" stop-color="#e4478f"/></linearGradient><clipPath id="clip-path" transform="translate(0 0.01)"><path class="cls-1" d="M73.94,30.75a8.6,8.6,0,0,0-3.15-7.18c-2-1.58-4.87-2.28-8.25-2.28h-.68a27.85,27.85,0,0,0-2-3.78C56.25,11.59,50.91,9,45.24,9c-.39-.66-.78-1.33-1.17-2A13.51,13.51,0,0,0,31.91,0,16.33,16.33,0,0,0,20.79,4.28c-3.72,3.61-5.36,8.7-5.36,14,0,.58,0,1.16.06,1.74A24,24,0,0,0,5,25C2,27.58,0,31,0,34.7a11.87,11.87,0,0,0,3.22,7.84A11.69,11.69,0,0,1,6.1,48.69,22.24,22.24,0,0,0,8,53.9,37.73,37.73,0,0,0,41.22,75a26.06,26.06,0,0,0,16.6-5.44A20.74,20.74,0,0,0,64.68,59c1.48-5.23,1.82-7.26,4.32-12.42a72.23,72.23,0,0,0,3.88-9.75,20.47,20.47,0,0,0,1.06-6.06M63.05,53.06c0,.21,0,.41,0,.61a55.84,55.84,0,0,1-5.38,7l-.9.95a36.17,36.17,0,0,0,3.41-15.79,39.42,39.42,0,0,0-3.58-16.7,17.51,17.51,0,0,0-9.75-8.78,37,37,0,0,0-13.58-2.19c-3.47,0-3.38-1.64-.64-3a28.46,28.46,0,0,1,12.22-3.51,33.47,33.47,0,0,0,5.82,7.16,16.11,16.11,0,0,0,9.13,4.16c2.15,5.36,3.47,13,3.47,23.32Q63.23,49.45,63.05,53.06ZM17,27.6c3.08,9.11,3.18,17.07,3.37,23.81a65,65,0,0,0-10.19-8C9.51,43,8.9,42.53,8.35,42.1a23.32,23.32,0,0,1,4.37-10.17,43.75,43.75,0,0,1,4.12-4.88C16.9,27.23,17,27.42,17,27.6Zm5,21.32a74.26,74.26,0,0,0-2.86-20.21c-.16-.55-.34-1.1-.52-1.65-.83-2.43.68-3.94,5.84-4.55A75.62,75.62,0,0,1,33.23,22a33.26,33.26,0,0,1,12.16,1.91,13.67,13.67,0,0,1,7.72,6.88,35.48,35.48,0,0,1,3.2,15.05c0,8.81-3.08,17.27-9,21.19A9.56,9.56,0,0,1,42,68.88a10.55,10.55,0,0,1-6.06-2.34C32.69,64.24,29.15,60.3,25,56c-.93-1-1.89-1.94-2.88-2.92C22.09,51.77,22.05,50.38,22,48.92Zm4.2,13.87a57,57,0,0,0,7.51,6.87,22.38,22.38,0,0,0,2.39,1.48,18.7,18.7,0,0,1-5.41-1.36c-3.51-1.49-5.46-3.41-6.67-5.87A16.72,16.72,0,0,1,22.62,59C23.85,60.32,25,61.59,26.21,62.79ZM57.75,18.86c.42.67.82,1.41,1.21,2.19a14.39,14.39,0,0,1-7.2-3.59,29.68,29.68,0,0,1-4.86-5.8C51.14,12.12,54.82,14.21,57.75,18.86ZM22,5.49A14.63,14.63,0,0,1,31.91,1.7,11.77,11.77,0,0,1,42.59,7.82c.24.44.48.86.73,1.28C36.16,9.71,28.6,13.73,22,19c-1.67.23-3.29.49-4.82.75,0-.48-.05-1-.05-1.43C17.13,13.32,18.66,8.72,22,5.49ZM3.82,34.7c0-2.31,1.27-4.71,3.68-6.77a19.93,19.93,0,0,1,8.5-4.1c0,.13.05.25.08.37a48.38,48.38,0,0,0-5.44,6.25,27.19,27.19,0,0,0-4.51,9.61A8.1,8.1,0,0,1,3.82,34.7Zm6.42,18.06a19.18,19.18,0,0,1-1.9-6A70.32,70.32,0,0,1,20.67,57a21.92,21.92,0,0,0,1.83,7.61,12.36,12.36,0,0,0,2.62,3.58A35.47,35.47,0,0,1,10.24,52.76Zm46,14.83a22.06,22.06,0,0,1-10.67,4.53,15.23,15.23,0,0,0,4-2,19.93,19.93,0,0,0,3.23-2.77,42.93,42.93,0,0,0,6.15-5.61,52.59,52.59,0,0,0,3.56-4.33A18.28,18.28,0,0,1,56.21,67.59Zm15.05-31.3q-.72,2.3-1.6,4.53c-1.48,3.77-3.7,6-4-.26A60.65,60.65,0,0,0,62.53,23h0c3.15,0,5.6.67,7.2,1.93s2.49,3.09,2.5,5.84A18.15,18.15,0,0,1,71.26,36.29Z"/></clipPath><linearGradient id="New_Gradient_Swatch_1-3" x1="-404.41" y1="172.05" x2="-403.84" y2="172.05" gradientTransform="matrix(0, 133.51, 133.51, 0, -22933.61, 53995.09)" xlink:href="#New_Gradient_Swatch_1"/></defs><title>DataHub</title><g id="Layer_2" data-name="Layer 2"><g id="Layer_1-2" data-name="Layer 1"><path class="cls-1" d="M73.94,30.75a8.6,8.6,0,0,0-3.15-7.18c-2-1.58-4.87-2.28-8.25-2.28h-.68a27.85,27.85,0,0,0-2-3.78C56.25,11.59,50.91,9,45.24,9c-.39-.66-.78-1.33-1.17-2A13.51,13.51,0,0,0,31.91,0,16.33,16.33,0,0,0,20.79,4.28c-3.72,3.61-5.36,8.7-5.36,14,0,.58,0,1.16.06,1.74A24,24,0,0,0,5,25C2,27.58,0,31,0,34.7a11.87,11.87,0,0,0,3.22,7.84A11.69,11.69,0,0,1,6.1,48.69,22.24,22.24,0,0,0,8,53.9,37.73,37.73,0,0,0,41.22,75a26.06,26.06,0,0,0,16.6-5.44A20.74,20.74,0,0,0,64.68,59c1.48-5.23,1.82-7.26,4.32-12.42a72.23,72.23,0,0,0,3.88-9.75,20.47,20.47,0,0,0,1.06-6.06M63.05,53.06c0,.21,0,.41,0,.61a55.84,55.84,0,0,1-5.38,7l-.9.95a36.17,36.17,0,0,0,3.41-15.79,39.42,39.42,0,0,0-3.58-16.7,17.51,17.51,0,0,0-9.75-8.78,37,37,0,0,0-13.58-2.19c-3.47,0-3.38-1.64-.64-3a28.46,28.46,0,0,1,12.22-3.51,33.47,33.47,0,0,0,5.82,7.16,16.11,16.11,0,0,0,9.13,4.16c2.15,5.36,3.47,13,3.47,23.32Q63.23,49.45,63.05,53.06ZM17,27.6c3.08,9.11,3.18,17.07,3.37,23.81a65,65,0,0,0-10.19-8C9.51,43,8.9,42.53,8.35,42.1a23.32,23.32,0,0,1,4.37-10.17,43.75,43.75,0,0,1,4.12-4.88C16.9,27.23,17,27.42,17,27.6Zm5,21.32a74.26,74.26,0,0,0-2.86-20.21c-.16-.55-.34-1.1-.52-1.65-.83-2.43.68-3.94,5.84-4.55A75.62,75.62,0,0,1,33.23,22a33.26,33.26,0,0,1,12.16,1.91,13.67,13.67,0,0,1,7.72,6.88,35.48,35.48,0,0,1,3.2,15.05c0,8.81-3.08,17.27-9,21.19A9.56,9.56,0,0,1,42,68.88a10.55,10.55,0,0,1-6.06-2.34C32.69,64.24,29.15,60.3,25,56c-.93-1-1.89-1.94-2.88-2.92C22.09,51.77,22.05,50.38,22,48.92Zm4.2,13.87a57,57,0,0,0,7.51,6.87,22.38,22.38,0,0,0,2.39,1.48,18.7,18.7,0,0,1-5.41-1.36c-3.51-1.49-5.46-3.41-6.67-5.87A16.72,16.72,0,0,1,22.62,59C23.85,60.32,25,61.59,26.21,62.79ZM57.75,18.86c.42.67.82,1.41,1.21,2.19a14.39,14.39,0,0,1-7.2-3.59,29.68,29.68,0,0,1-4.86-5.8C51.14,12.12,54.82,14.21,57.75,18.86ZM22,5.49A14.63,14.63,0,0,1,31.91,1.7,11.77,11.77,0,0,1,42.59,7.82c.24.44.48.86.73,1.28C36.16,9.71,28.6,13.73,22,19c-1.67.23-3.29.49-4.82.75,0-.48-.05-1-.05-1.43C17.13,13.32,18.66,8.72,22,5.49ZM3.82,34.7c0-2.31,1.27-4.71,3.68-6.77a19.93,19.93,0,0,1,8.5-4.1c0,.13.05.25.08.37a48.38,48.38,0,0,0-5.44,6.25,27.19,27.19,0,0,0-4.51,9.61A8.1,8.1,0,0,1,3.82,34.7Zm6.42,18.06a19.18,19.18,0,0,1-1.9-6A70.32,70.32,0,0,1,20.67,57a21.92,21.92,0,0,0,1.83,7.61,12.36,12.36,0,0,0,2.62,3.58A35.47,35.47,0,0,1,10.24,52.76Zm46,14.83a22.06,22.06,0,0,1-10.67,4.53,15.23,15.23,0,0,0,4-2,19.93,19.93,0,0,0,3.23-2.77,42.93,42.93,0,0,0,6.15-5.61,52.59,52.59,0,0,0,3.56-4.33A18.28,18.28,0,0,1,56.21,67.59Zm15.05-31.3q-.72,2.3-1.6,4.53c-1.48,3.77-3.7,6-4-.26A60.65,60.65,0,0,0,62.53,23h0c3.15,0,5.6.67,7.2,1.93s2.49,3.09,2.5,5.84A18.15,18.15,0,0,1,71.26,36.29Z" transform="translate(0 0.01)"/><g class="cls-2"><rect class="cls-3" width="73.96" height="75.01"/></g><path class="cls-4" d="M89.29,39.39h5.58c3.72,0,7.2,2.28,7.2,7.08s-4.1,7.08-7.5,7.08H89.29Zm4.4,11.88c3.16,0,5.74-1.36,5.74-4.8s-2.24-4.8-5.32-4.8h-2.3v9.6Z" transform="translate(0 0.01)"/><path class="cls-4" d="M109.83,52.23h-.06a3.45,3.45,0,0,1-3.08,1.56c-1.78,0-3.5-1-3.5-2.88,0-3.12,3.64-3.34,6-3.34h.6v-.26c0-1.18-.92-1.8-2.2-1.8a3.78,3.78,0,0,0-2.56,1l-1.26-1.26a5.62,5.62,0,0,1,4.08-1.54c4.1,0,4.1,3,4.1,4.32v5.52h-2.16Zm-.14-3h-.5c-1.32,0-3.6.1-3.6,1.48,0,.88.9,1.26,1.68,1.26,1.64,0,2.42-.86,2.42-2.2Z" transform="translate(0 0.01)"/><path class="cls-4" d="M113,46V44h2V41.17h2.4V44h2.64v2h-2.64v4.2c0,1,.28,1.56,1.34,1.56a2.5,2.5,0,0,0,1.3-.3v2a5.06,5.06,0,0,1-1.9.32c-2.54,0-3.14-1.14-3.14-3.4V46Z" transform="translate(0 0.01)"/><path class="cls-4" d="M127.51,52.23h-.06a3.45,3.45,0,0,1-3.08,1.56c-1.78,0-3.5-1-3.5-2.88,0-3.12,3.64-3.34,6-3.34h.6v-.26c0-1.18-.92-1.8-2.2-1.8a3.78,3.78,0,0,0-2.56,1l-1.26-1.26a5.62,5.62,0,0,1,4.08-1.54c4.1,0,4.1,3,4.1,4.32v5.52h-2.16Zm-.14-3h-.5c-1.32,0-3.6.1-3.6,1.48,0,.88.9,1.26,1.68,1.26,1.64,0,2.42-.86,2.42-2.2Z" transform="translate(0 0.01)"/><path class="cls-4" d="M132,39.39h2.53V45h6.62V39.39h2.52V53.55h-2.52V47.31h-6.62v6.24H132Z" transform="translate(0 0.01)"/><path class="cls-4" d="M155,53.55h-2.28V52h0a3,3,0,0,1-2.94,1.78c-2.58,0-3.5-1.82-3.5-3.78V44h2.4v4.86c0,1.06.08,2.82,1.76,2.82a2.15,2.15,0,0,0,2.2-2.44V44H155Z" transform="translate(0 0.01)"/><path class="cls-4" d="M157.29,38.43h2.4v6.74h.06A4,4,0,0,1,163,43.71c2.74,0,4.64,2.2,4.64,5s-1.78,5-4.74,5a3.7,3.7,0,0,1-3.3-1.68h0v1.44h-2.28Zm5.14,7.44a2.88,2.88,0,1,0,2.82,2.88A2.78,2.78,0,0,0,162.43,45.87Z" transform="translate(0 0.01)"/><path class="cls-4" d="M88.65,60.3h1.42l4.56,12.43,4.6-12.43h1.4L95.25,74.47H93.93Z" transform="translate(0 0.01)"/><path class="cls-4" d="M102.47,60.66a.9.9,0,1,1-.9.9A.9.9,0,0,1,102.47,60.66Zm-.6,4.56h1.2v9.25h-1.2Z" transform="translate(0 0.01)"/><path class="cls-4" d="M105.87,72.11a3,3,0,0,0,2.68,1.52,1.94,1.94,0,0,0,2.12-1.71c0-2.54-5.48-.75-5.48-4.28,0-1.8,1.64-2.66,3.16-2.66a3.38,3.38,0,0,1,3.26,1.74l-1.08.64a2.26,2.26,0,0,0-2.18-1.3c-.86,0-2,.52-2,1.48,0,2.51,5.48.56,5.48,4.31,0,1.9-1.58,2.86-3.34,2.86a4.07,4.07,0,0,1-3.72-1.88Z" transform="translate(0 0.01)"/><path class="cls-4" d="M114.54,60.66a.9.9,0,1,1-.9.9A.9.9,0,0,1,114.54,60.66ZM114,65.22h1.2v9.25H114Z" transform="translate(0 0.01)"/><path class="cls-4" d="M122.45,66.3H119.8v6a1.19,1.19,0,0,0,1.28,1.3,3.61,3.61,0,0,0,1.37-.32l.1,1.08a5.29,5.29,0,0,1-1.56.32,2.16,2.16,0,0,1-2.39-2.38v-6h-2V65.22h2V62.56h1.2v2.66h2.65Z" transform="translate(0 0.01)"/><path class="cls-4" d="M128.18,60.3h8.48v1.2H129.5v5h6.66v1.2H129.5v6.73h-1.32Z" transform="translate(0 0.01)"/><path class="cls-4" d="M139.14,60.66a.9.9,0,1,1-.9.9A.9.9,0,0,1,139.14,60.66Zm-.6,4.56h1.2v9.25h-1.2Z" transform="translate(0 0.01)"/><path class="cls-4" d="M142.52,67.82c0-.68-.1-2.12-.1-2.6h1.2c0,.68,0,1.44.08,1.62h.06A3.46,3.46,0,0,1,146.92,65c2.88,0,3.52,2,3.52,4v5.51h-1.2V69c0-1.5-.42-3-2.32-3s-3.2,1.24-3.2,3.78v4.63h-1.2Z" transform="translate(0 0.01)"/><path class="cls-4" d="M153.22,59.34h1.2V74.47h-1.2Z" transform="translate(0 0.01)"/><path class="cls-4" d="M164.38,70.59a28.33,28.33,0,0,0,.18,3.88h-1.12a8.94,8.94,0,0,1-.12-1.5h0A3.36,3.36,0,0,1,160,74.71c-1.58,0-3.26-.78-3.26-2.75,0-2.82,3.3-3.1,5.12-3.1h1.4V68.3c0-1.6-1.12-2.24-2.6-2.24a4.17,4.17,0,0,0-2.82,1l-.7-.82A5.39,5.39,0,0,1,160.7,65c2.24,0,3.68,1,3.68,3.34Zm-2.4-.76c-2,0-4,.5-4,2.08a1.9,1.9,0,0,0,2.1,1.72,2.88,2.88,0,0,0,3.22-3.18v-.62Z" transform="translate(0 0.01)"/><path class="cls-4" d="M167,67.82c0-.68-.1-2.12-.1-2.6h1.2c0,.68,0,1.44.08,1.62h.06A3.46,3.46,0,0,1,171.36,65c2.88,0,3.52,2,3.52,4v5.51h-1.2V69c0-1.5-.42-3-2.32-3s-3.2,1.24-3.2,3.78v4.63H167Z" transform="translate(0 0.01)"/><path class="cls-4" d="M185.54,72.85h0a4.26,4.26,0,0,1-3.7,1.86,4.87,4.87,0,0,1,0-9.73,4.26,4.26,0,0,1,3.7,1.86h0v-7.5h1.2V74.47h-1.2Zm-3.74-6.79a3.79,3.79,0,0,0,0,7.57,3.79,3.79,0,1,0,0-7.57Z" transform="translate(0 0.01)"/></g></g></svg>